<?xml version="1.0" encoding="utf-8"?>
<!-- Generator: Adobe Illustrator 21.0.0, SVG Export Plug-In . SVG Version: 6.00 Build 0)  -->
<svg version="1.1" id="Layer_1" xmlns="http://www.w3.org/2000/svg" xmlns:xlink="http://www.w3.org/1999/xlink" x="0px" y="0px"
	 viewBox="0 0 150 150" style="enable-background:new 0 0 150 150;" xml:space="preserve">
<style type="text/css">
	.st0{display:none;}
	.st1{display:inline;}
	.st2{fill:#FFFFFF;}
</style>
<g id="Layer_1_1_" class="st0">
	<g class="st1">
		<rect x="-233" y="-1928" width="1749" height="2260"/>
	</g>
</g>
<g id="Layer_3" class="st0">
	<g class="st1">
		<rect x="-233" y="-1928" class="st2" width="1749" height="2260"/>
	</g>
</g>
<g id="Layer_2">
	<g>
		<path class="st2" d="M75,19c-30.9,0-56,25.1-56,56s25.1,56,56,56s56-25.1,56-56S105.9,19,75,19z M75,129c-29.8,0-54-24.2-54-54
			s24.2-54,54-54s54,24.2,54,54S104.8,129,75,129z"/>
		<path class="st2" d="M84,72.3c0-4.9-4-9-9-9c-4.9,0-9,4-9,9v11.3h18V72.3z"/>
		<rect x="62.2" y="85.2" class="st2" width="25.7" height="3.1"/>
		<rect x="74.2" y="53.7" class="st2" width="1.6" height="6.4"/>
		<rect x="84.6" y="62.5" transform="matrix(0.866 -0.5 0.5 0.866 -19.8933 52.3964)" class="st2" width="6.4" height="1.6"/>
		<rect x="61.3" y="60.1" transform="matrix(0.5 -0.866 0.866 0.5 -23.7622 85.389)" class="st2" width="1.6" height="6.4"/>
	</g>
</g>
</svg>
