<?xml version="1.0" encoding="utf-8"?>
<!-- Generator: Adobe Illustrator 21.0.0, SVG Export Plug-In . SVG Version: 6.00 Build 0)  -->
<svg version="1.1" xmlns="http://www.w3.org/2000/svg" xmlns:xlink="http://www.w3.org/1999/xlink" x="0px" y="0px"
	 viewBox="0 0 150 150" style="enable-background:new 0 0 150 150;" xml:space="preserve">
<style type="text/css">
	.st0{display:none;}
	.st1{display:inline;}
	.st2{fill:#FFFFFF;}
</style>
<g id="Layer_1" class="st0">
	<g class="st1">
		<rect x="-426" y="-1349" width="1749" height="2260"/>
	</g>
</g>
<g id="Layer_3" class="st0">
	<g class="st1">
		<rect x="-426" y="-1349" class="st2" width="1749" height="2260"/>
	</g>
</g>
<g id="Layer_2">
	<path class="st2" d="M117.7,108l-12.2-23c-1.1-2-2.9-5.5-8.5-5.8l-11-0.5c0.8-1.2,1.2-2.6,1.2-4.1c0-4-3-7-7.3-7.5l-5.3-0.5
		c-0.6-2.9-2.1-9.9-4.6-15.7c-2.1-5.2-5.9-7.8-11-7.3c-5.9,0.5-9.3,5.9-10.4,10.5L45,70.9c-0.6,2.7-0.3,4.9,0.9,6.7
		c1.4,2,3.7,3.2,6.1,3.2l0,0l3,0.2l1.2,7.3c0.9,5,5.3,8.4,10.5,8.1l25.6-1.7l11.3,20.9c1.4,2.6,4.1,4.3,7.2,4.3
		c1.4,0,2.6-0.3,3.8-0.9c1.8-1.1,3.3-2.7,4-4.7C119,112,118.7,109.9,117.7,108z M52,77.1c-1.2,0-2.4-0.6-3-1.7
		c-0.6-0.9-0.6-2-0.3-3.7l3.8-16.6c0.8-3.3,3-7.5,6.9-7.6c3.3-0.2,5.8,1.5,7.3,5.2c2,4.7,3.5,10.7,4.1,13.9L62,65.9l1.1-4.1
		c0.3-1.1-0.3-2-1.4-2.3c-1.1-0.3-2,0.3-2.3,1.4l-1.5,6.2c-0.2,0.5,0,1.1,0.3,1.5s0.8,0.8,1.4,0.8l19.9,1.5c2,0.2,3.8,1.5,3.8,3.7
		c0,1.1-0.5,2-1.2,2.7c-0.6,0.6-2,1.1-2.9,1.1C52,77.1,52,77.1,52,77.1z M114.7,113.1c-0.3,1.1-1.1,2-2.1,2.6
		c-0.6,0.3-1.4,0.5-2,0.5c-1.7,0-3-0.9-3.8-2.3L95.1,91.9c-0.3-0.6-0.9-0.9-1.7-0.9h-0.2l-26.8,1.8c-3.3,0.2-6.1-1.8-6.5-5l-1.1-6.5
		l38.1,1.7c3.2,0.2,4.3,1.7,5.3,3.8l12.2,23C115,110.8,115.2,112,114.7,113.1z M62.2,41.8L62.2,41.8c5.9,0,10.7-4.9,10.7-10.7
		S68,20.5,62.2,20.5c-5.9,0-10.7,4.9-10.7,10.7C51.5,37.1,56.4,41.8,62.2,41.8z M62.2,24.3c3.8,0,6.9,3,7,6.9c0,3.8-3,7-6.9,7l0,0
		c-3.8,0-6.9-3-7-6.9S58.4,24.3,62.2,24.3z M94.3,105.8c-0.9-0.3-2,0.2-2.4,1.1c-4.4,11.3-15.4,18.9-27.4,18.9
		c-16.3,0-29.4-13.2-29.4-29.4c0-6.7,2.3-13.2,6.5-18.6c0.6-0.8,0.5-2-0.3-2.6c-0.8-0.6-2-0.5-2.6,0.3c-4.9,5.8-7.5,13.2-7.5,20.9
		c0,18.3,14.9,33.2,33.2,33.2c13.5,0,26-8.5,30.9-21.2C95.7,107.3,95.2,106.2,94.3,105.8z"/>
</g>
</svg>
