<?xml version="1.0" encoding="utf-8"?>
<!-- Generator: Adobe Illustrator 21.0.0, SVG Export Plug-In . SVG Version: 6.00 Build 0)  -->
<svg version="1.1" id="Layer_1" xmlns="http://www.w3.org/2000/svg" xmlns:xlink="http://www.w3.org/1999/xlink" x="0px" y="0px"
	 viewBox="0 0 150 150" style="enable-background:new 0 0 150 150;" xml:space="preserve">
<style type="text/css">
	.st0{display:none;}
	.st1{display:inline;}
	.st2{fill:#FFFFFF;}
</style>
<g id="Layer_1_1_" class="st0">
	<g class="st1">
		<rect x="-1451" y="-91" width="1749" height="2260"/>
	</g>
</g>
<g id="Layer_3" class="st0">
	<g class="st1">
		<rect x="-1451" y="-91" class="st2" width="1749" height="2260"/>
	</g>
</g>
<g id="Layer_2">
	<g>
		<path class="st2" d="M75,84c-5.1,0-9-4-9-9s4-9,9-9s9,4,9,9S80.1,84,75,84z"/>
		<g>
			<path class="st2" d="M75,108.2c-18.2,0-33.2-14.8-33.2-33.2c0-18.2,14.8-33.2,33.2-33.2s33.2,15,33.2,33.2S93.2,108.2,75,108.2z
				 M75,43.7c-17.2,0-31.3,14.1-31.3,31.3s14.1,31.3,31.3,31.3s31.3-14.1,31.3-31.3S92.2,43.7,75,43.7z"/>
		</g>
		<g>
			<path class="st2" d="M75,131c-30.9,0-56-25.1-56-56s25.1-56,56-56s56,25.1,56,56S105.9,131,75,131z M75,21c-29.8,0-54,24.2-54,54
				s24.2,54,54,54s54-24.2,54-54S104.8,21,75,21z"/>
		</g>
	</g>
</g>
</svg>
