<?xml version="1.0" encoding="utf-8"?>
<!-- Generator: Adobe Illustrator 21.0.0, SVG Export Plug-In . SVG Version: 6.00 Build 0)  -->
<svg version="1.1" id="Layer_1" xmlns="http://www.w3.org/2000/svg" xmlns:xlink="http://www.w3.org/1999/xlink" x="0px" y="0px"
	 viewBox="0 0 150 150" style="enable-background:new 0 0 150 150;" xml:space="preserve">
<style type="text/css">
	.st0{display:none;}
	.st1{display:inline;}
	.st2{fill:#FFFFFF;}
</style>
<g id="Layer_1_1_" class="st0">
	<g class="st1">
		<rect x="-426" y="-1928" width="1749" height="2260"/>
	</g>
</g>
<g id="Layer_3" class="st0">
	<g class="st1">
		<rect x="-426" y="-1928" class="st2" width="1749" height="2260"/>
	</g>
</g>
<g id="Layer_2">
	<g>
		<g>
			<g>
				<path class="st2" d="M75,131c-30.9,0-56-25.1-56-56s25.1-56,56-56s56,25.1,56,56S105.9,131,75,131z M75,21
					c-29.8,0-54,24.2-54,54s24.2,54,54,54s54-24.2,54-54S104.8,21,75,21z"/>
			</g>
		</g>
	</g>
	<g id="noun_648890_cc" transform="translate(36.000000, 43.000000)">
		<g id="Artboard-1">
			<path id="Shape" class="st2" d="M60.3,41v4H31.8v-4c0-0.9,0.4-1.7,1-2.2c2.6-2.1,5.4-3.9,8.4-5.4c0.1,0,0.1-0.1,0.1-0.2v-2.7
				c-0.4-0.7-0.7-1.4-0.8-2.2c-0.3,0-0.7-0.4-1.2-2c-0.6-2.1,0-2.4,0.6-2.4c-0.1-0.3-0.2-0.6-0.2-0.9l0,0c-0.2-0.9-0.2-1.9,0-2.8
				c0.3-1.1,0.8-2.1,1.6-2.9c0.4-0.5,1-0.9,1.5-1.3c0.4-0.3,0.9-0.6,1.5-0.8l0,0c0.4-0.1,0.9-0.2,1.3-0.3c1.2-0.1,2.3,0.1,3.3,0.7
				c0.7,0.3,1.2,0.9,1.6,1.5c0,0,2.7,0.2,1.8,5.7c-0.1,0.3-0.1,0.6-0.2,0.9c0.5-0.1,1.2,0.3,0.6,2.4c-0.4,1.6-0.8,2-1.2,2
				c-0.1,0.8-0.4,1.5-0.8,2.2v2.8c0,0.1,0.1,0.2,0.1,0.2c3,1.5,5.8,3.3,8.3,5.4C59.9,39.4,60.3,40.2,60.3,41L60.3,41z M29.8,41
				c0-1.4,0.6-2.8,1.8-3.7c0.5-0.4,1.1-0.8,1.6-1.2c-0.1-0.2-0.1-0.3-0.1-0.5v-1.2l0,0V34c0,0,3.7,0.1,5.4-1.7c0,0-2.5-0.7-2.1-5.4
				c0.5-4.7-0.6-8.7-4.3-8.4c0,0-1.6-2-4.8-0.7c-1.1,0.4-4.1,1.5-3.9,7.9S21,32.2,21,32.2s1.2,1.8,5.5,1.8v1.6
				c0,0.3-0.2,0.6-0.4,0.8l-0.1,0c-1.3,0.7-4,1.4-4,1.4c-0.9,0.2-1.7,0.6-2.5,1c-1,0.5-1.6,1.4-1.7,2.4V45h12.1v-4H29.8z"/>
		</g>
	</g>
</g>
</svg>
