<?xml version="1.0" encoding="utf-8"?>
<!-- Generator: Adobe Illustrator 21.0.0, SVG Export Plug-In . SVG Version: 6.00 Build 0)  -->
<svg version="1.1" xmlns="http://www.w3.org/2000/svg" xmlns:xlink="http://www.w3.org/1999/xlink" x="0px" y="0px"
	 viewBox="0 0 150 150" style="enable-background:new 0 0 150 150;" xml:space="preserve">
<style type="text/css">
	.st0{display:none;}
	.st1{display:inline;}
	.st2{fill:#FFFFFF;}
</style>
<g id="Layer_1" class="st0">
	<g class="st1">
		<rect x="-233" y="-993" width="1749" height="2260"/>
	</g>
</g>
<g id="Layer_3" class="st0">
	<g class="st1">
		<rect x="-233" y="-993" class="st2" width="1749" height="2260"/>
	</g>
</g>
<g id="Layer_2">
	<path class="st2" d="M60.7,125.5c-0.2,0-0.5-0.1-0.8-0.2c-0.8-0.3-1.2-1.1-1.1-1.9l5.6-40.9H37.9c-0.8,0-1.4-0.4-1.7-1.1
		c-0.3-0.7-0.2-1.4,0.3-1.9L88,25.1c0.3-0.4,0.8-0.6,1.3-0.6c0.3,0,0.6,0.1,0.8,0.2c0.7,0.3,1.2,1.1,1,1.8l-5.5,40.9h26.6
		c0.8,0,1.4,0.4,1.7,1.1c0.3,0.7,0.1,1.5-0.4,2.1L62,124.9C61.6,125.3,61.1,125.5,60.7,125.5z M42,78.9h24.3c0.5,0,1,0.2,1.4,0.6
		c0.4,0.4,0.5,1,0.4,1.4l-4.9,37.4l44.9-47.3H83.7c-0.6,0-1.1-0.2-1.3-0.5c-0.5-0.5-0.5-1.1-0.5-1.5l4.9-37.4L42,78.9z"/>
</g>
</svg>
