<?xml version="1.0" encoding="utf-8"?>
<!-- Generator: Adobe Illustrator 21.0.0, SVG Export Plug-In . SVG Version: 6.00 Build 0)  -->
<svg version="1.1" xmlns="http://www.w3.org/2000/svg" xmlns:xlink="http://www.w3.org/1999/xlink" x="0px" y="0px"
	 viewBox="0 0 150 150" style="enable-background:new 0 0 150 150;" xml:space="preserve">
<style type="text/css">
	.st0{display:none;}
	.st1{display:inline;}
	.st2{fill:#FFFFFF;}
</style>
<g id="Layer_1" class="st0">
	<g class="st1">
		<rect x="-617" y="-1349" width="1749" height="2260"/>
	</g>
</g>
<g id="Layer_3" class="st0">
	<g class="st1">
		<rect x="-617" y="-1349" class="st2" width="1749" height="2260"/>
	</g>
</g>
<g id="Layer_2">
	<g>
		<g>
			<path class="st2" d="M103.1,41c3.2,0,6,2.6,6,6v56.1c0,3.2-2.6,6-6,6H46.9c-3.2,0-6-2.6-6-6V46.8c0-3.2,2.6-6,6-6h56.1
				 M103.1,37.1H46.9c-5.4,0-9.8,4.4-9.8,9.8v56.1c0,5.4,4.4,9.8,9.8,9.8h56.1c5.4,0,9.8-4.4,9.8-9.8V46.8
				C112.8,41.4,108.5,37.1,103.1,37.1L103.1,37.1z"/>
		</g>
		<polygon class="st2" points="88.6,77.6 88.5,72.3 77.7,72.3 77.7,61.3 72.4,61.4 72.4,72.2 61.4,72.2 61.5,77.6 72.3,77.6 
			72.3,88.5 77.7,88.3 77.7,77.6 		"/>
	</g>
</g>
</svg>
